<svg xmlns="http://www.w3.org/2000/svg" viewBox="158 236 686 499" width="686" height="499">
<g transform="translate(0.000000,1000.000000) scale(0.100000,-0.100000)" fill="#FFFFFF" fill-rule="evenodd"><path d="M4985 7173 c-11 -2 -30 -6 -42 -9 -32 -6 -29 -36 10 -109 31 -57 35
-60 72 -63 53 -3 91 21 149 96 68 90 67 92 -61 91 -60 -1 -117 -3 -128 -6z"/><path d="M4508 7010 c-96 -49 -219 -143 -320 -245 -54 -54 -98 -101 -98 -106
0 -4 -12 -20 -28 -36 -63 -68 -186 -322 -221 -457 -40 -151 -46 -209 -46 -416
0 -188 2 -211 23 -276 13 -40 22 -80 20 -90 -2 -10 -23 -26 -51 -37 l-48 -20
-28 27 c-27 26 -30 27 -57 13 -16 -8 -204 -90 -419 -182 -214 -92 -403 -173
-420 -180 -62 -27 -331 -142 -363 -155 -62 -24 -63 -68 -6 -183 19 -37 34 -73
34 -80 0 -24 58 -134 75 -140 28 -11 56 -8 99 13 23 10 75 33 116 50 41 17
103 45 138 61 35 16 65 29 68 29 2 0 53 21 112 46 59 26 141 61 182 79 41 17
95 41 120 52 46 21 312 136 407 176 50 21 53 24 53 60 0 35 3 40 44 58 24 10
51 17 59 13 8 -3 35 -33 58 -67 90 -129 256 -301 363 -378 84 -60 272 -152
372 -183 49 -15 103 -31 119 -36 99 -31 306 -38 515 -16 277 29 562 164 771
368 230 223 359 464 413 768 8 47 16 119 18 162 l2 76 -47 51 c-26 28 -52 62
-57 75 -12 32 3 78 42 127 34 45 35 71 5 169 -18 59 -28 78 -49 87 -35 17
-147 6 -156 -15 -3 -8 11 -65 31 -126 31 -96 38 -133 49 -273 14 -188 7 -252
-47 -436 -63 -211 -168 -380 -336 -543 -126 -121 -381 -269 -461 -266 -21 0
-59 -8 -84 -19 -36 -17 -82 -23 -217 -30 -95 -6 -199 -7 -232 -4 -74 8 -189
41 -231 66 -17 10 -42 19 -54 19 -13 0 -45 14 -72 30 -26 17 -51 30 -54 30
-11 0 -128 74 -149 93 -11 11 -36 29 -55 42 -82 53 -231 233 -299 360 -69 130
-118 286 -133 424 -9 86 -5 303 6 356 36 166 74 264 160 414 49 85 85 129 186
231 101 101 160 150 217 179 30 15 43 29 48 49 6 31 -10 151 -22 163 -5 5 -34
-5 -65 -21z"/><path d="M5856 7003 c-10 -10 -7 -173 4 -193 6 -11 43 -44 83 -74 40 -30 100
-84 133 -120 l61 -66 100 0 c55 0 103 3 106 6 13 13 -48 101 -122 177 -139
144 -341 293 -365 270z"/><path d="M7055 6521 c-22 -10 -62 -42 -88 -72 -27 -30 -72 -79 -101 -109 -337
-358 -356 -383 -327 -439 16 -29 76 -28 193 5 270 75 336 127 383 304 29 111
55 242 55 276 0 54 -44 68 -115 35z"/><path d="M7217 6453 c-4 -3 -7 -23 -7 -42 0 -30 -34 -178 -52 -231 -3 -8 -11
-34 -17 -57 -24 -88 -135 -186 -252 -223 -41 -12 -99 -31 -129 -41 -30 -10
-67 -20 -82 -24 -50 -10 -33 -38 95 -160 133 -128 170 -152 213 -141 27 7 109
85 244 231 36 39 106 116 157 170 128 139 153 173 153 206 0 34 -44 86 -165
195 -49 45 -99 91 -109 103 -19 21 -37 27 -49 14z"/><path d="M6782 6434 c-12 -8 -20 -20 -17 -25 8 -13 82 -11 91 2 16 26 -43 45
-74 23z"/><path d="M5157 6413 c-3 -5 -8 -37 -12 -72 -7 -65 -20 -102 -55 -156 -10 -16
-35 -60 -54 -97 -20 -37 -52 -93 -71 -125 -19 -32 -35 -62 -35 -67 0 -5 -11
-24 -26 -43 -14 -18 -32 -49 -40 -68 -26 -64 -14 -183 23 -211 39 -30 137 -9
179 38 48 55 61 96 84 268 6 47 18 105 27 130 8 25 23 89 33 143 14 73 28 112
55 155 37 61 42 81 23 100 -13 13 -124 17 -131 5z"/><path d="M6729 6384 c-7 -9 -24 -20 -36 -25 -28 -10 -48 -51 -39 -76 7 -15 15
-10 57 35 45 49 61 82 40 82 -5 0 -15 -7 -22 -16z"/><path d="M6620 6271 c0 -5 -3 -16 -6 -24 -6 -18 29 -57 51 -57 20 0 19 21 -2
59 -17 29 -43 42 -43 22z"/><path d="M7450 3335 l0 -545 140 0 140 0 0 114 c0 108 1 116 25 143 21 23 27
26 34 13 5 -8 45 -62 88 -121 43 -58 85 -115 93 -127 15 -22 19 -23 184 -20
l168 3 -153 193 c-85 106 -160 202 -167 212 -13 18 1 35 151 197 91 98 162
180 157 183 -4 3 -78 3 -164 0 l-155 -5 -92 -110 c-51 -60 -109 -130 -131
-154 l-38 -44 0 307 0 306 -140 0 -140 0 0 -545z"/><path d="M5530 3305 l0 -515 395 0 395 0 0 115 0 115 -260 0 -260 0 0 400 0
400 -135 0 -135 0 0 -515z"/><path d="M6735 3591 c-132 -32 -220 -120 -240 -238 l-7 -43 130 0 130 0 12 34
c14 43 39 65 82 72 28 5 39 1 66 -24 26 -24 32 -38 32 -71 l0 -41 -59 0 c-70
0 -193 -22 -246 -44 -58 -25 -125 -84 -146 -130 -21 -47 -25 -136 -8 -187 19
-56 56 -96 114 -124 51 -25 62 -27 148 -23 113 6 170 27 188 69 14 35 29 23
29 -23 l0 -28 139 0 138 0 -8 43 c-4 23 -8 137 -9 252 0 116 -5 239 -10 274
-18 125 -78 196 -190 226 -57 15 -231 19 -285 6z m205 -512 c0 -22 -8 -54 -17
-70 -47 -79 -173 -68 -173 16 0 55 57 93 143 94 l47 1 0 -41z"/></g>
<g transform="translate(0.000000,1000.000000) scale(0.100000,-0.100000)" fill="#B62F39" fill-rule="evenodd"><path d="M4440 7506 c0 -7 8 -24 18 -37 45 -57 162 -344 162 -395 0 -14 4 -33
9 -43 5 -9 17 -64 26 -121 9 -58 24 -145 32 -195 11 -63 16 -156 17 -310 0
-195 -2 -229 -21 -295 -11 -41 -26 -106 -33 -145 -13 -70 -80 -329 -100 -380
-12 -31 -43 -146 -70 -255 -24 -100 -37 -189 -50 -339 -6 -68 -13 -127 -16
-132 -3 -5 -2 -9 3 -9 4 0 22 -13 38 -28 29 -27 146 -102 159 -102 4 0 25 -12
49 -27 23 -14 59 -30 80 -33 34 -7 39 -5 52 20 8 15 21 67 29 117 17 97 61
229 83 251 7 8 19 12 26 9 8 -3 67 -112 132 -242 l118 -238 121 5 c96 4 132
10 174 28 28 12 52 28 52 34 0 6 -18 63 -39 127 -80 235 -99 422 -65 654 21
142 75 320 125 414 78 145 281 371 367 407 20 9 58 27 84 41 129 66 362 88
611 57 47 -6 83 8 71 27 -9 15 -95 56 -143 69 -103 27 -223 40 -391 39 -170 0
-215 -4 -500 -48 -235 -37 -290 -43 -321 -39 -21 3 -29 1 -29 -11 0 -9 -16
-41 -35 -73 -27 -43 -41 -82 -55 -155 -10 -54 -25 -118 -33 -143 -9 -25 -21
-83 -27 -130 -23 -172 -36 -213 -84 -268 -42 -47 -140 -68 -179 -38 -37 28
-49 147 -23 211 8 19 26 50 40 68 15 19 26 38 26 43 0 5 16 35 35 67 19 32 51
88 71 125 19 37 44 81 54 97 35 55 48 93 56 162 10 88 9 91 -36 176 -21 40
-53 115 -71 167 -122 367 -183 473 -381 666 -152 148 -218 193 -218 150z"/><path d="M5448 7205 c-124 -25 -217 -100 -277 -225 -35 -73 -36 -79 -36 -190
0 -106 2 -119 27 -166 33 -63 103 -126 156 -142 68 -21 164 -15 227 13 84 37
177 131 212 213 25 61 28 78 28 182 -1 99 -4 121 -23 158 -29 55 -87 119 -126
140 -43 22 -125 30 -188 17z"/><path d="M1707 3813 c-4 -3 -7 -53 -7 -110 l0 -103 165 0 165 0 0 -405 0 -405
140 0 140 0 0 405 0 405 165 0 166 0 -3 108 -3 107 -461 3 c-253 1 -464 -1
-467 -5z"/><path d="M3227 3598 c-64 -9 -120 -48 -143 -101 l-19 -42 -5 63 -5 63 -135 0
-135 0 -3 -395 -2 -396 140 0 140 0 0 198 c0 210 8 263 49 320 28 40 78 62
153 67 l63 4 3 109 3 110 -28 4 c-15 2 -50 0 -76 -4z"/><path d="M4767 3590 c-97 -25 -202 -111 -251 -207 -38 -76 -53 -184 -38 -279
35 -223 169 -334 404 -334 190 0 313 69 378 212 32 70 35 68 -114 68 l-134 0
-12 -30 c-16 -38 -62 -63 -117 -63 -69 0 -120 46 -130 120 l-5 38 254 -3 c139
-1 263 0 276 3 19 5 22 12 22 59 0 176 -84 327 -219 393 -50 25 -69 28 -166
30 -60 1 -127 -2 -148 -7z m183 -199 c23 -16 66 -88 58 -97 -6 -5 -239 -7
-244 -1 -11 11 10 59 37 87 44 43 98 48 149 11z"/><path d="M3473 3573 c-3 -6 -3 -148 -1 -315 3 -294 4 -304 26 -351 50 -99 143
-143 291 -135 107 6 147 25 187 86 l29 47 3 -57 3 -58 137 0 137 0 -3 397 -2
398 -133 0 -132 0 -5 -260 c-5 -238 -7 -263 -26 -294 -28 -48 -65 -73 -107
-73 -52 0 -74 10 -99 45 -22 31 -23 41 -28 306 l-5 274 -134 1 c-94 1 -135 -2
-138 -11z"/></g>
</svg>
